<svg width="128" height="37" viewBox="0 0 128 37" fill="none" xmlns="http://www.w3.org/2000/svg">
<path fill-rule="evenodd" clip-rule="evenodd" d="M52.9924 0.0684881C53.051 0.127818 53.0655 0.215118 53.0357 0.332931C53.0068 0.596526 52.9482 1.0076 52.8597 1.56445C56.5673 1.50597 59.4358 1.63819 61.466 1.96027C61.6717 1.98993 61.7151 2.10775 61.5986 2.31286C61.2747 2.87056 60.6855 3.13416 59.8328 3.10449C57.6853 3.01634 55.3014 3.06042 52.6829 3.23671C52.2417 8.22383 52.0215 13.8704 52.0215 20.1763C52.0215 25.516 52.2119 29.7547 52.5945 32.8924C55.8608 32.8043 56.2238 32.889 58.1656 33.212C58.4011 33.2408 58.4598 33.3586 58.3425 33.5637C58.0185 34.1206 57.4447 34.3994 56.6209 34.3994C53.9726 34.3706 53.3877 34.5189 50.3883 34.8283C48.2782 35.047 46.2914 35.3275 44.2034 36.003C44.0265 36.0615 43.9092 36.0615 43.8497 36.003C43.8208 35.9445 43.8208 35.8267 43.8497 35.6513C44.1439 34.4774 44.7033 33.773 45.5271 33.5391C47.3507 33.0111 48.6489 33.0077 50.9613 32.9365C50.6969 32.6136 50.5354 32.233 50.4767 31.7923C50.2404 29.7098 50.1239 26.8204 50.1239 23.125C50.1239 15.029 50.4912 8.44335 51.2266 3.36893C48.2842 3.60371 45.607 4.0436 43.1942 4.6886C42.9885 4.74793 42.8559 4.74793 42.7972 4.6886C42.7088 4.63012 42.6943 4.51316 42.753 4.33686C43.0463 3.2223 43.5913 2.56205 44.3862 2.35693C45.8569 1.97553 48.2399 1.71193 51.536 1.56445C51.7707 0.802486 52.183 0.304113 52.7713 0.0684881C52.8886 0.0396706 52.9626 0.0396706 52.9924 0.0684881ZM11.4752 0.861307C13.9755 0.831642 15.8297 2.01994 17.0361 4.42535C17.9483 6.21373 18.3454 8.16484 18.228 10.277C18.0801 12.8002 17.2861 14.2665 15.845 14.6767C15.6682 14.7361 15.55 14.7496 15.4922 14.7208C15.4327 14.6623 15.4327 14.531 15.4922 14.3258C15.7855 13.157 15.9334 11.8848 15.9334 10.5109C15.9334 8.2318 15.55 6.28747 14.7857 4.67962C13.9619 2.92599 12.8882 2.07842 11.5636 2.13606C9.68048 2.19623 7.73871 3.83544 5.73742 7.05706C3.53125 10.6898 2.38352 14.8344 2.29596 19.4909C2.23645 23.2694 2.91318 26.3241 4.3253 28.6524C5.73742 30.9806 7.65029 32.1155 10.0631 32.0562C12.0048 32.0265 13.7043 31.1841 15.1606 29.5271C16.6126 27.875 18.3858 25.2978 18.4241 21.9299C18.5351 16.202 18.9822 11.6284 19.7634 8.20832C19.9692 7.29972 20.3662 6.74202 20.9554 6.53691C21.1322 6.47758 21.2351 6.47758 21.2648 6.53691C21.2648 6.56657 21.2495 6.65387 21.2206 6.8005C20.4844 10.9078 20.1171 16.5688 20.1171 23.7842V27.4363C20.7394 24.4156 21.6151 21.8924 22.7433 19.8684C23.0102 19.37 23.3214 19.1208 23.6776 19.1208C23.9148 19.1208 24.1826 19.2386 24.4784 19.4726C25.0719 19.9421 25.3694 20.7643 25.3694 21.9373C25.3099 27.1287 25.7069 29.8562 26.5605 30.1206C26.9142 30.2384 27.2959 29.9223 27.7082 29.1747C27.9191 28.7908 28.0899 28.3619 28.2243 27.8889C28.1843 27.5135 28.158 27.1151 28.1495 26.6888C28.1197 24.6063 28.3543 22.7874 28.8551 21.233C29.0608 20.588 29.4434 20.2066 30.0028 20.0887C30.1201 20.0887 30.2239 20.1472 30.3123 20.265C29.9289 22.0831 29.7384 23.9164 29.7384 25.7641C29.7384 28.9323 30.0912 30.6342 30.7969 30.869C31.2092 31.0156 31.7023 30.6486 32.2762 29.7689C32.85 28.8891 33.2538 27.7737 33.4893 26.4243C33.497 26.3871 33.5055 26.354 33.514 26.3243C33.293 24.958 33.1799 23.3519 33.1799 21.4966C33.1799 18.886 33.4298 15.9823 33.9306 12.7852C34.666 8.3558 35.6369 6.14109 36.8432 6.14109C37.225 6.14109 37.5939 6.37587 37.9468 6.84457C38.7417 7.84217 39.1378 9.50002 39.1378 11.8164C39.1378 14.104 38.7706 16.4366 38.0352 18.8123C37.2411 21.2762 36.2541 23.0366 35.0783 24.0935C35.3129 28.5518 36.0636 30.7809 37.3295 30.7809C37.8872 30.7809 38.4764 30.3622 39.0945 29.5273C39.6335 28.7975 40.0654 27.8974 40.4029 26.8447C40.1206 25.3708 39.9761 23.5943 39.9761 21.4966C39.9761 18.886 40.226 15.9823 40.7268 12.7852C41.4622 8.3558 42.4322 6.14109 43.6395 6.14109C44.022 6.14109 44.3902 6.37587 44.743 6.84457C45.537 7.84217 45.9349 9.50002 45.9349 11.8164C45.9349 14.104 45.5668 16.4366 44.8314 18.8123C44.0365 21.2762 43.0511 23.0366 41.8745 24.0935C42.11 28.5518 42.8599 30.7809 44.1249 30.7809C44.6835 30.7809 45.2726 30.3622 45.8907 29.5273C46.5088 28.6899 46.9942 27.6423 47.347 26.3811C47.4354 26.1167 47.5239 26.0879 47.6114 26.2921C47.7585 26.5566 47.7883 27.0846 47.6998 27.8762C47.6114 28.8738 47.3173 29.7689 46.8174 30.5605C46.2282 31.5572 45.4631 32.0565 44.5228 32.0565C44.2575 32.0565 43.9923 32.0124 43.7279 31.9251C42.4076 31.553 41.4401 30.4012 40.8169 28.4848C40.6783 29.24 40.4165 29.9333 40.0212 30.5605C39.432 31.5572 38.6677 32.0565 37.7257 32.0565C37.4613 32.0565 37.1969 32.0124 36.9317 31.9251C35.5603 31.5386 34.5673 30.313 33.9484 28.261C33.8702 29.212 33.6296 30.0299 33.2249 30.7148C32.6953 31.6098 32.033 32.0565 31.239 32.0565C31.0324 32.0565 30.8122 32.0124 30.5767 31.9251C29.7325 31.6234 29.1101 30.9707 28.7055 29.9723C28.3799 30.8326 27.8128 31.264 27.0017 31.264C26.796 31.264 26.5894 31.2208 26.3845 31.1326C24.9129 30.6342 24.0449 29.5044 23.7805 27.7449C23.6036 26.5422 23.5152 24.4003 23.5152 21.3203C23.4557 20.9109 23.3503 20.866 23.2015 21.1889C21.6789 24.4453 20.7836 28.0093 20.5141 31.8802C20.4852 32.2031 20.3415 32.3209 20.0822 32.2328C19.1615 31.909 18.6582 31.1623 18.5724 29.9892C18.5087 29.2147 18.4623 28.3634 18.433 27.4355C17.8905 28.8346 17.109 30.0597 16.2421 30.9561C14.8299 32.4232 13.0488 33.2148 10.9022 33.3327C8.07708 33.4793 5.6201 32.4673 3.53125 30.2966C1.2069 27.8624 0.0294185 24.5035 0.000512861 20.2199C-0.0292429 14.97 1.2358 10.3795 3.7965 6.4485C6.14975 2.78191 8.7096 0.91979 11.4752 0.861307ZM96.0933 9.88024C96.2098 9.85142 96.2838 9.85142 96.3135 9.88024C96.3424 9.9099 96.3424 9.99805 96.3135 10.1447C96.1069 11.2008 95.8867 12.6967 95.6512 14.6326C98.3284 14.5741 100.697 14.7114 102.758 15.0428C102.904 15.0733 102.934 15.1649 102.845 15.3157C102.551 15.7404 102.124 15.9387 101.566 15.909C99.5356 15.8209 97.5191 15.8209 95.5186 15.909C95.2542 18.4382 95.0918 20.8521 95.034 23.1481C94.915 28.1488 95.4013 30.6483 96.4904 30.6483C96.9316 30.6483 97.4017 30.2966 97.9025 29.5922C98.3233 28.9998 98.6489 28.2175 98.8827 27.2495C98.9201 26.9707 98.9592 26.6842 99.0051 26.3808C99.3282 24.2686 99.5195 22.8167 99.579 22.0243C98.6668 21.5555 98.24 20.7198 98.2987 19.5163C98.3284 18.6958 98.5052 18.0356 98.8283 17.5372C99.0936 17.1261 99.3869 16.9202 99.7116 16.9202C100.417 16.9202 100.77 18.2839 100.77 21.0123C102.211 21.1012 103.507 20.3673 104.654 18.812C104.831 18.5484 105.052 18.5484 105.316 18.812C105.757 19.2824 105.978 19.7367 105.978 20.1765C105.978 20.3825 105.934 20.602 105.846 20.8368C104.786 23.1541 104.257 25.6036 104.257 28.1844C104.257 30.1203 104.654 31.089 105.449 31.089C106.462 31.089 107.343 29.8787 108.09 27.4674C108.072 27.2165 108.058 26.9597 108.053 26.6884C108.023 24.606 108.258 22.7879 108.759 21.2326C108.964 20.5876 109.347 20.2062 109.906 20.0884C110.023 20.0884 110.127 20.1477 110.215 20.2647C109.832 22.0836 109.642 23.9169 109.642 25.7646C109.642 28.9328 109.994 30.6347 110.701 30.8687C111.112 31.0162 111.605 30.6483 112.179 29.7685C112.527 29.2354 112.804 28.6048 113.028 27.8996C112.891 27.3436 112.819 26.7503 112.819 26.1172C112.819 25.5595 112.877 24.9882 112.995 24.4C113.319 22.582 113.863 21.1445 114.628 20.0884C115.334 19.1501 116.099 18.6806 116.923 18.6806C117.305 18.6806 117.673 18.7984 118.027 19.0323C119.027 19.7367 119.527 20.7487 119.527 22.0683C119.527 22.5387 119.468 23.0218 119.35 23.5202C119.055 24.7526 118.46 25.7349 117.563 26.4689C116.666 27.2021 115.716 27.5987 114.716 27.6564C114.893 29.3286 115.349 30.2966 116.084 30.561C116.29 30.6483 116.526 30.6924 116.791 30.6924C117.644 30.6924 118.505 30.3042 119.373 29.527C119.997 28.9676 120.502 28.2734 120.89 27.4479C120.856 27.3131 120.814 27.1487 120.763 26.9529C120.527 26.0138 120.601 25.34 120.984 24.928C121.16 24.7526 121.307 25.0603 121.425 25.8527C122.189 21.892 123.248 19.2824 124.602 18.0212C124.866 17.7567 125.146 17.6245 125.44 17.6245C125.794 17.6245 126.131 17.8008 126.456 18.1525C126.632 18.3577 126.602 18.5484 126.368 18.7247C125.955 19.0764 125.75 19.6485 125.75 20.4401C125.75 21.6725 126.205 23.316 127.118 25.3688C127.706 26.7478 128 27.9064 128 28.8438C128 29.8126 127.691 30.5822 127.074 31.1543C126.456 31.7264 125.764 32.0129 124.999 32.0129C123.499 32.0129 122.292 31 121.381 28.9769C121.321 29.1235 121.204 29.2846 121.027 29.4609C121.004 29.4787 120.984 29.488 120.964 29.4998C120.723 29.9406 120.43 30.333 120.079 30.6712C119.299 31.4179 118.38 31.7925 117.32 31.7925C116.791 31.7925 116.261 31.69 115.731 31.4849C114.996 31.1916 114.363 30.6195 113.834 29.7685C113.767 29.6677 113.706 29.5626 113.646 29.4583C113.523 29.9168 113.352 30.3372 113.128 30.7144C112.598 31.6095 111.936 32.0561 111.142 32.0561C110.936 32.0561 110.714 32.0129 110.48 31.9247C109.505 31.5764 108.823 30.7636 108.434 29.4854C107.944 31.434 107.066 32.4079 105.802 32.4079C104.654 32.4079 103.786 31.7773 103.197 30.5169C102.726 29.5482 102.492 28.4489 102.492 27.2165C102.492 25.5739 102.83 23.7703 103.507 21.8047C102.8 22.1285 101.991 22.2887 101.079 22.2887H100.726C100.696 22.8481 100.594 24.189 100.417 26.3096C100.269 28.0776 100.196 29.4626 100.196 30.4627C100.196 31.2289 100.24 31.9061 100.329 32.4952C100.358 32.6426 100.329 32.7308 100.24 32.7605C100.181 32.8189 100.079 32.8189 99.9318 32.7605C99.182 32.5206 98.7654 31.8637 98.6736 30.7992C98.1932 31.4882 97.5845 31.8366 96.8432 31.8366C96.6366 31.8366 96.4164 31.8069 96.1809 31.7485C94.9745 31.4543 94.1507 30.6042 93.7095 29.1964C93.3566 27.9937 93.224 26.0579 93.3124 23.3888C93.3711 20.9546 93.621 18.4602 94.0623 15.909C92.9741 15.9963 91.885 16.1438 90.7968 16.3489C90.6497 16.3777 90.5613 16.3489 90.5324 16.2608C90.4737 16.2023 90.4737 16.1285 90.5324 16.0404C90.6497 15.3657 91.091 14.9852 91.8561 14.8962C92.3858 14.8385 93.1798 14.7801 94.2391 14.7207C94.5919 12.99 94.8861 11.7288 95.1216 10.9363C95.2687 10.4083 95.5917 10.0565 96.0933 9.88024ZM74.0586 6.0526C74.1759 6.02379 74.2499 6.02379 74.2788 6.0526C74.3383 6.08227 74.3519 6.15601 74.323 6.27212C73.2934 11.5822 72.8072 17.288 72.8667 23.3888C72.8956 25.1484 72.9551 26.5122 73.0435 27.4809C73.2203 29.5346 73.5578 30.6636 74.0586 30.8687C74.4114 31.0162 74.8229 30.6636 75.2939 29.8126C75.5336 29.3795 75.7385 28.8735 75.9094 28.2971C75.8261 27.6462 75.7793 26.9249 75.7793 26.1172C75.7793 24.0635 76.0446 22.0548 76.5734 20.0884C76.8089 19.2086 77.2204 18.7247 77.8095 18.6365C77.9566 18.6077 78.0595 18.6077 78.1181 18.6365C78.1479 18.6662 78.1479 18.7543 78.1181 18.901C77.7364 20.8656 77.5451 23.0218 77.5451 25.3688C77.5451 27.2758 77.7058 28.6684 78.0306 29.5482C78.295 30.2822 78.6928 30.6483 79.2216 30.6483C80.0454 30.6483 80.6193 29.1676 80.9432 26.2045L81.5613 20.7046C81.7084 19.8545 82.1641 19.34 82.9292 19.1645C83.0763 19.1357 83.1792 19.1501 83.2378 19.2086C83.2676 19.2383 83.2676 19.3264 83.2378 19.4731C82.9139 21.848 82.7532 24.0042 82.7532 25.9409C82.7532 28.9625 83.1639 30.472 83.9885 30.472C84.3124 30.472 84.6576 30.0838 85.0257 29.3066C85.2774 28.7743 85.4729 28.1581 85.6217 27.4674C85.5877 27.3301 85.5435 27.1588 85.4891 26.9529C85.2536 26.0138 85.3275 25.34 85.7093 24.928C85.8861 24.7526 86.0332 25.0603 86.1513 25.8527C86.9165 21.892 87.9749 19.2824 89.3284 18.0212C89.5937 17.7567 89.8734 17.6245 90.1675 17.6245C90.5203 17.6245 90.8578 17.8008 91.1826 18.1525C91.3586 18.3577 91.3288 18.5484 91.0942 18.7247C90.6819 19.0764 90.4761 19.6485 90.4761 20.4401C90.4761 21.6725 90.9318 23.316 91.844 25.3688C92.4323 26.7478 92.7265 27.9064 92.7265 28.8438C92.7265 29.8126 92.4179 30.5822 91.8007 31.1543C91.1826 31.7264 90.4906 32.0129 89.7263 32.0129C88.3014 32.0129 87.1418 31.0984 86.2483 29.2744C85.9796 30.8916 85.2723 31.7044 84.1211 31.7044C82.9139 31.7044 82.0467 30.8687 81.5171 29.1964C81.1345 30.4584 80.5309 31.3238 79.7071 31.7925C79.3543 31.9976 78.9717 32.1002 78.5602 32.1002C77.9124 32.1002 77.3827 31.851 76.9713 31.3526C76.774 31.1051 76.6023 30.8127 76.4544 30.4737C76.0497 31.5578 75.4274 32.1002 74.5882 32.1002C74.3817 32.1002 74.1759 32.0714 73.9702 32.0129C72.5581 31.5433 71.6603 30.2237 71.2777 28.053C70.8654 30.6636 69.8214 31.9688 68.144 31.9688C66.9376 31.9688 66.0109 31.4382 65.364 30.3796C65.3062 30.2864 65.2534 30.1881 65.2016 30.0898C65.1633 30.1771 65.1225 30.261 65.0775 30.3406C64.6804 31.045 64.1431 31.3967 63.4664 31.3967C61.7304 31.3967 60.6864 30.2381 60.3327 27.92C60.1567 26.719 60.0683 24.5763 60.0683 21.4962C60.0088 21.086 59.9059 21.0419 59.7597 21.364C58.288 24.5916 57.3758 28.053 57.023 31.7485C56.9932 32.0714 56.8606 32.2028 56.626 32.1443C55.7137 31.9688 55.2283 31.4993 55.1696 30.7365C55.0217 29.2405 54.9928 27.3487 55.0812 25.0603C55.1696 22.5964 55.3456 20.6758 55.6109 19.2968C55.758 18.5636 56.1405 18.1085 56.7577 17.9322C56.9048 17.9034 57.0077 17.9034 57.0672 17.9322C57.1259 17.9618 57.1403 18.05 57.1114 18.1966C56.6991 20.9843 56.5665 24.1517 56.7144 27.7004C57.3903 24.4737 58.2583 21.9217 59.3184 20.0443C59.6118 19.5163 59.9212 19.2527 60.2451 19.2527C60.745 19.2527 61.1718 19.5468 61.5246 20.1325C61.7899 20.5732 61.9225 21.2326 61.9225 22.1124C61.863 27.3046 62.26 30.0186 63.1136 30.2525C63.5251 30.3703 63.9374 30.0262 64.3497 29.2185C64.4687 28.9845 64.5674 28.7362 64.6549 28.4819C64.5691 28.0268 64.5257 27.542 64.5257 27.0249C64.5257 26.2299 64.6141 25.3773 64.7901 24.4644C65.1718 22.5218 65.7754 21.0072 66.6001 19.918C67.4231 18.8289 68.2622 18.2839 69.1157 18.2839C69.9098 18.2839 70.601 18.7831 71.1893 19.7807C71.543 14.5004 72.1755 10.204 73.0877 6.88831C73.205 6.47808 73.5289 6.20008 74.0586 6.0526ZM69.6326 19.5604C69.1276 19.4442 68.5402 20.0011 67.8719 21.2326C67.2029 22.465 66.7497 23.9169 66.5125 25.5891C66.4233 26.2341 66.3791 26.8359 66.3791 27.3919C66.3791 28.5082 66.5346 29.3803 66.8466 30.0101C67.1587 30.6415 67.5081 30.9721 67.8941 31C68.5478 31.0602 69.2161 30.3254 69.9004 28.8006C70.6418 27.0995 70.9836 25.1645 70.9249 22.9922C70.8943 21.9954 70.731 21.1597 70.4343 20.4842C70.1963 19.9282 69.9293 19.6197 69.6326 19.5604ZM124.293 20.6605C123.645 21.6878 122.896 23.9754 122.042 27.525C122.512 28.5217 123.116 29.3142 123.852 29.8999C124.499 30.4279 125.102 30.6924 125.661 30.6924C126.279 30.6924 126.588 30.3559 126.588 29.6812C126.588 29.0939 126.191 27.8767 125.396 26.0282C124.602 24.1805 124.205 22.7142 124.205 21.6284C124.205 21.2767 124.234 20.9546 124.293 20.6605ZM89.0198 20.6605C88.372 21.6878 87.6221 23.9754 86.7694 27.525C87.2395 28.5217 87.8423 29.3142 88.5786 29.8999C89.2255 30.4279 89.8283 30.6924 90.3877 30.6924C91.0058 30.6924 91.3144 30.3559 91.3144 29.6812C91.3144 29.0939 90.9174 27.8767 90.1233 26.0282C89.3284 24.1805 88.9314 22.7142 88.9314 21.6284C88.9314 21.2767 88.9603 20.9546 89.0198 20.6605ZM117.497 19.868C117.026 19.7519 116.496 20.2359 115.908 21.3199C115.261 22.4938 114.863 23.8584 114.716 25.4129C114.658 26.0875 114.643 26.5859 114.673 26.9088C115.731 26.674 116.585 25.9265 117.232 24.6644C117.761 23.638 118.027 22.5387 118.027 21.364C118.027 20.4562 117.85 19.9562 117.497 19.868ZM37.1527 7.94472C36.8279 7.76843 36.4462 8.81009 36.005 11.068C35.5637 13.3277 35.2687 15.7924 35.1225 18.4606C35.063 19.6344 35.0341 21.1007 35.0341 22.8603C36.7404 20.1625 37.5939 16.2764 37.5939 11.2011C37.5939 9.17625 37.446 8.0922 37.1527 7.94472ZM43.9489 7.94472C43.6241 7.76843 43.2424 8.81009 42.8012 11.068C42.36 13.3277 42.0649 15.7924 41.9187 18.4606C41.8592 19.6344 41.8303 21.1007 41.8303 22.8603C43.5366 20.1625 44.3902 16.2764 44.3902 11.2011C44.3902 9.17625 44.2422 8.0922 43.9489 7.94472ZM30.1354 16.9648C30.6939 16.8767 31.0178 17.1844 31.1062 17.8887C31.1649 18.2998 31.0765 18.6515 30.8418 18.9448C30.6055 19.2389 30.3266 19.4143 30.0027 19.4728C29.6788 19.5313 29.4144 19.466 29.2087 19.2753C29.0021 19.0846 28.9281 18.7981 28.9876 18.4167C29.105 17.537 29.4884 17.053 30.1354 16.9648ZM110.866 16.9648C111.423 16.8767 111.747 17.1844 111.836 17.8887C111.894 18.2998 111.806 18.6515 111.571 18.9448C111.336 19.2389 111.056 19.4143 110.733 19.4728C110.409 19.5313 110.144 19.466 109.938 19.2753C109.732 19.0846 109.658 18.7981 109.718 18.4167C109.834 17.537 110.218 17.053 110.866 16.9648Z" fill="black"/>
</svg>
